<mxfile host="65bd71144e" modified="2021-01-18T06:35:13.174Z" agent="5.0 (Windows NT 10.0; Win64; x64) AppleWebKit/537.36 (KHTML, like Gecko) Code/1.52.1 Chrome/83.0.4103.122 Electron/9.3.5 Safari/537.36" version="13.10.0" etag="WMAhfYkmQYGshhcb0LdT" type="embed">
    <diagram id="rpb6bYrcBt89LahXuwdT" name="第 1 页">
        <mxGraphModel dx="2201" dy="790" grid="1" gridSize="10" guides="1" tooltips="1" connect="1" arrows="1" fold="1" page="1" pageScale="1" pageWidth="827" pageHeight="1169" math="0" shadow="0">
            <root>
                <mxCell id="0"/>
                <mxCell id="1" parent="0"/>
                <mxCell id="18" value="main" style="swimlane;" vertex="1" parent="1">
                    <mxGeometry x="-270" y="51" width="1220" height="819" as="geometry"/>
                </mxCell>
                <mxCell id="2" value="ReaderWriter struct" style="swimlane;fontStyle=0;childLayout=stackLayout;horizontal=1;startSize=26;fillColor=none;horizontalStack=0;resizeParent=1;resizeParentMax=0;resizeLast=0;collapsible=1;marginBottom=0;" vertex="1" parent="18">
                    <mxGeometry x="40" y="46" width="190" height="290" as="geometry"/>
                </mxCell>
                <mxCell id="3" value="name string" style="text;strokeColor=none;fillColor=none;align=left;verticalAlign=top;spacingLeft=4;spacingRight=4;overflow=hidden;rotatable=0;points=[[0,0.5],[1,0.5]];portConstraint=eastwest;" vertex="1" parent="2">
                    <mxGeometry y="26" width="190" height="26" as="geometry"/>
                </mxCell>
                <mxCell id="5" value="write sync.WaitGroup" style="text;strokeColor=none;fillColor=none;align=left;verticalAlign=top;spacingLeft=4;spacingRight=4;overflow=hidden;rotatable=0;points=[[0,0.5],[1,0.5]];portConstraint=eastwest;" vertex="1" parent="2">
                    <mxGeometry y="52" width="190" height="28" as="geometry"/>
                </mxCell>
                <mxCell id="6" value="readerControl semaphore&#10;" style="text;strokeColor=none;fillColor=none;align=left;verticalAlign=top;spacingLeft=4;spacingRight=4;overflow=hidden;rotatable=0;points=[[0,0.5],[1,0.5]];portConstraint=eastwest;" vertex="1" parent="2">
                    <mxGeometry y="80" width="190" height="30" as="geometry"/>
                </mxCell>
                <mxCell id="7" value="shutdown chan struct{}" style="text;strokeColor=none;fillColor=none;align=left;verticalAlign=top;spacingLeft=4;spacingRight=4;overflow=hidden;rotatable=0;points=[[0,0.5],[1,0.5]];portConstraint=eastwest;" vertex="1" parent="2">
                    <mxGeometry y="110" width="190" height="30" as="geometry"/>
                </mxCell>
                <mxCell id="8" value="shutdown chan struct{}" style="text;strokeColor=none;fillColor=none;align=left;verticalAlign=top;spacingLeft=4;spacingRight=4;overflow=hidden;rotatable=0;points=[[0,0.5],[1,0.5]];portConstraint=eastwest;" vertex="1" parent="2">
                    <mxGeometry y="140" width="190" height="30" as="geometry"/>
                </mxCell>
                <mxCell id="9" value="reportShutdown sync.WaitGroup" style="text;strokeColor=none;fillColor=none;align=left;verticalAlign=top;spacingLeft=4;spacingRight=4;overflow=hidden;rotatable=0;points=[[0,0.5],[1,0.5]];portConstraint=eastwest;" vertex="1" parent="2">
                    <mxGeometry y="170" width="190" height="30" as="geometry"/>
                </mxCell>
                <mxCell id="10" value="maxReads int  (并发数)" style="text;strokeColor=none;fillColor=none;align=left;verticalAlign=top;spacingLeft=4;spacingRight=4;overflow=hidden;rotatable=0;points=[[0,0.5],[1,0.5]];portConstraint=eastwest;" vertex="1" parent="2">
                    <mxGeometry y="200" width="190" height="30" as="geometry"/>
                </mxCell>
                <mxCell id="11" value="maxReaders int (最大数)" style="text;strokeColor=none;fillColor=none;align=left;verticalAlign=top;spacingLeft=4;spacingRight=4;overflow=hidden;rotatable=0;points=[[0,0.5],[1,0.5]];portConstraint=eastwest;" vertex="1" parent="2">
                    <mxGeometry y="230" width="190" height="30" as="geometry"/>
                </mxCell>
                <mxCell id="12" value="currentReads int32 " style="text;strokeColor=none;fillColor=none;align=left;verticalAlign=top;spacingLeft=4;spacingRight=4;overflow=hidden;rotatable=0;points=[[0,0.5],[1,0.5]];portConstraint=eastwest;" vertex="1" parent="2">
                    <mxGeometry y="260" width="190" height="30" as="geometry"/>
                </mxCell>
                <mxCell id="13" value="" style="shape=singleArrow;whiteSpace=wrap;html=1;" vertex="1" parent="18">
                    <mxGeometry x="240" y="155" width="60" height="60" as="geometry"/>
                </mxCell>
                <mxCell id="14" value="Start method" style="swimlane;" vertex="1" parent="18">
                    <mxGeometry x="311" y="75" width="190" height="200" as="geometry"/>
                </mxCell>
                <mxCell id="16" value="Add&amp;nbsp; one writer gr" style="whiteSpace=wrap;html=1;" vertex="1" parent="14">
                    <mxGeometry x="40" y="140" width="120" height="35" as="geometry"/>
                </mxCell>
                <mxCell id="15" value="Add maxReaders gr" style="whiteSpace=wrap;html=1;" vertex="1" parent="14">
                    <mxGeometry x="40" y="80" width="120" height="40" as="geometry"/>
                </mxCell>
                <mxCell id="17" value="rw.reportShutdown&amp;nbsp; &amp;nbsp;wg" style="text;html=1;align=center;verticalAlign=middle;resizable=0;points=[];autosize=1;" vertex="1" parent="14">
                    <mxGeometry y="40" width="140" height="20" as="geometry"/>
                </mxCell>
                <mxCell id="19" value="" style="shape=singleArrow;whiteSpace=wrap;html=1;" vertex="1" parent="18">
                    <mxGeometry x="510" y="155" width="60" height="60" as="geometry"/>
                </mxCell>
                <mxCell id="20" value="Shutdown method" style="swimlane;" vertex="1" parent="18">
                    <mxGeometry x="580" y="75" width="190" height="200" as="geometry"/>
                </mxCell>
                <mxCell id="21" value="waitShutdown.Wait()" style="whiteSpace=wrap;html=1;" vertex="1" parent="20">
                    <mxGeometry x="20" y="140" width="150" height="35" as="geometry"/>
                </mxCell>
                <mxCell id="22" value="for:&amp;nbsp; &amp;nbsp; &amp;nbsp; &amp;nbsp; &amp;nbsp; &amp;nbsp; &amp;nbsp; &amp;nbsp; &amp;nbsp;rw.stop(&amp;amp;waitShutdown)" style="whiteSpace=wrap;html=1;align=left;" vertex="1" parent="20">
                    <mxGeometry x="20" y="80" width="150" height="50" as="geometry"/>
                </mxCell>
                <mxCell id="23" value="waitShutDown&amp;nbsp; &amp;nbsp;wg" style="text;html=1;align=center;verticalAlign=middle;resizable=0;points=[];autosize=1;" vertex="1" parent="20">
                    <mxGeometry x="10" y="44" width="120" height="20" as="geometry"/>
                </mxCell>
                <mxCell id="25" value="Stop method" style="swimlane;" vertex="1" parent="18">
                    <mxGeometry x="35.5" y="486" width="194.5" height="210" as="geometry"/>
                </mxCell>
                <mxCell id="27" value="close(rw.shutdown)" style="whiteSpace=wrap;html=1;" vertex="1" parent="25">
                    <mxGeometry x="25" y="35" width="140" height="40" as="geometry"/>
                </mxCell>
                <mxCell id="30" value="rw.reporShutdown.Wait()" style="whiteSpace=wrap;html=1;" vertex="1" parent="25">
                    <mxGeometry x="24.5" y="85" width="141" height="40" as="geometry"/>
                </mxCell>
                <mxCell id="31" value="waitShutdown.done" style="whiteSpace=wrap;html=1;" vertex="1" parent="25">
                    <mxGeometry x="24.5" y="135" width="140" height="40" as="geometry"/>
                </mxCell>
                <mxCell id="42" value="" style="shape=singleArrow;whiteSpace=wrap;html=1;" vertex="1" parent="18">
                    <mxGeometry x="800" y="155" width="60" height="60" as="geometry"/>
                </mxCell>
                <mxCell id="47" value="reader method" style="swimlane;" vertex="1" parent="18">
                    <mxGeometry x="280" y="346" width="209" height="225" as="geometry"/>
                </mxCell>
                <mxCell id="48" value="rw.performRead" style="whiteSpace=wrap;html=1;" vertex="1" parent="47">
                    <mxGeometry x="25" y="35" width="140" height="40" as="geometry"/>
                </mxCell>
                <mxCell id="49" value="shutdown, return" style="whiteSpace=wrap;html=1;" vertex="1" parent="47">
                    <mxGeometry x="27.5" y="115" width="135" height="40" as="geometry"/>
                </mxCell>
                <mxCell id="55" value="select method in a for loop" style="text;html=1;align=center;verticalAlign=middle;resizable=0;points=[];autosize=1;" vertex="1" parent="47">
                    <mxGeometry y="190" width="160" height="20" as="geometry"/>
                </mxCell>
                <mxCell id="57" value="" style="edgeStyle=orthogonalEdgeStyle;rounded=0;orthogonalLoop=1;jettySize=auto;html=1;entryX=0.5;entryY=0;entryDx=0;entryDy=0;" edge="1" parent="47" source="48" target="49">
                    <mxGeometry relative="1" as="geometry">
                        <mxPoint x="154" y="120" as="targetPoint"/>
                    </mxGeometry>
                </mxCell>
                <mxCell id="53" value="" style="edgeStyle=orthogonalEdgeStyle;rounded=0;orthogonalLoop=1;jettySize=auto;html=1;entryX=0;entryY=0.5;entryDx=0;entryDy=0;" edge="1" parent="18" source="27" target="48">
                    <mxGeometry relative="1" as="geometry">
                        <mxPoint x="295" y="401" as="targetPoint"/>
                    </mxGeometry>
                </mxCell>
                <mxCell id="58" value="performRead method (reader int)" style="swimlane;" vertex="1" parent="18">
                    <mxGeometry x="540" y="346" width="220" height="200" as="geometry"/>
                </mxCell>
                <mxCell id="59" value="rw.ReadLock" style="whiteSpace=wrap;html=1;" vertex="1" parent="58">
                    <mxGeometry x="25" y="35" width="140" height="40" as="geometry"/>
                </mxCell>
                <mxCell id="60" value="rw.ReadUnLock" style="whiteSpace=wrap;html=1;" vertex="1" parent="58">
                    <mxGeometry x="26" y="148" width="141" height="40" as="geometry"/>
                </mxCell>
                <mxCell id="66" value="do sth reading" style="whiteSpace=wrap;html=1;" vertex="1" parent="58">
                    <mxGeometry x="26" y="90" width="140" height="40" as="geometry"/>
                </mxCell>
                <mxCell id="63" value="" style="edgeStyle=orthogonalEdgeStyle;rounded=0;orthogonalLoop=1;jettySize=auto;html=1;entryX=0;entryY=0.5;entryDx=0;entryDy=0;" edge="1" parent="18" source="48" target="59">
                    <mxGeometry relative="1" as="geometry">
                        <mxPoint x="525" y="401" as="targetPoint"/>
                    </mxGeometry>
                </mxCell>
                <mxCell id="68" value="writer method" style="swimlane;startSize=23;" vertex="1" parent="18">
                    <mxGeometry x="280" y="595" width="210" height="190" as="geometry"/>
                </mxCell>
                <mxCell id="69" value="rw.performWrite" style="whiteSpace=wrap;html=1;" vertex="1" parent="68">
                    <mxGeometry x="20" y="59" width="140" height="40" as="geometry"/>
                </mxCell>
                <mxCell id="70" value="shutdown, return" style="whiteSpace=wrap;html=1;" vertex="1" parent="68">
                    <mxGeometry x="22.5" y="122" width="135" height="40" as="geometry"/>
                </mxCell>
                <mxCell id="72" value="" style="edgeStyle=orthogonalEdgeStyle;rounded=0;orthogonalLoop=1;jettySize=auto;html=1;entryX=0.5;entryY=0;entryDx=0;entryDy=0;" edge="1" parent="68" source="69" target="70">
                    <mxGeometry relative="1" as="geometry">
                        <mxPoint x="154" y="86" as="targetPoint"/>
                    </mxGeometry>
                </mxCell>
                <mxCell id="99" value="select method in a for loop" style="text;html=1;align=center;verticalAlign=middle;resizable=0;points=[];autosize=1;" vertex="1" parent="68">
                    <mxGeometry y="169" width="160" height="20" as="geometry"/>
                </mxCell>
                <mxCell id="74" value="" style="edgeStyle=orthogonalEdgeStyle;rounded=0;orthogonalLoop=1;jettySize=auto;html=1;entryX=0;entryY=0.5;entryDx=0;entryDy=0;" edge="1" parent="18">
                    <mxGeometry relative="1" as="geometry">
                        <mxPoint x="203.5" y="541" as="sourcePoint"/>
                        <mxPoint x="303" y="674" as="targetPoint"/>
                        <Array as="points">
                            <mxPoint x="253" y="541"/>
                            <mxPoint x="253" y="674"/>
                        </Array>
                    </mxGeometry>
                </mxCell>
                <mxCell id="75" value="performWrite method ()" style="swimlane;" vertex="1" parent="18">
                    <mxGeometry x="540" y="586" width="210" height="200" as="geometry"/>
                </mxCell>
                <mxCell id="76" value="rw.WriteLock" style="whiteSpace=wrap;html=1;" vertex="1" parent="75">
                    <mxGeometry x="25" y="35" width="140" height="40" as="geometry"/>
                </mxCell>
                <mxCell id="77" value="rw.WriteUnLock" style="whiteSpace=wrap;html=1;" vertex="1" parent="75">
                    <mxGeometry x="26" y="148" width="141" height="40" as="geometry"/>
                </mxCell>
                <mxCell id="78" value="do sth writing" style="whiteSpace=wrap;html=1;" vertex="1" parent="75">
                    <mxGeometry x="26" y="90" width="140" height="40" as="geometry"/>
                </mxCell>
                <mxCell id="79" value="" style="edgeStyle=orthogonalEdgeStyle;rounded=0;orthogonalLoop=1;jettySize=auto;html=1;entryX=0;entryY=0.5;entryDx=0;entryDy=0;exitX=1;exitY=0.5;exitDx=0;exitDy=0;" edge="1" parent="18" target="76" source="69">
                    <mxGeometry relative="1" as="geometry">
                        <mxPoint x="445" y="641" as="sourcePoint"/>
                        <mxPoint x="795" y="591" as="targetPoint"/>
                    </mxGeometry>
                </mxCell>
                <mxCell id="82" value="rw.readerControl.Acquire(1)" style="whiteSpace=wrap;html=1;" vertex="1" parent="18">
                    <mxGeometry x="940" y="374" width="210" height="53" as="geometry"/>
                </mxCell>
                <mxCell id="93" value="rw.readerControl.Acquire(rw.maxReads)" style="whiteSpace=wrap;html=1;" vertex="1" parent="18">
                    <mxGeometry x="940" y="610" width="230" height="60" as="geometry"/>
                </mxCell>
                <mxCell id="97" value="rw.write.Done()" style="whiteSpace=wrap;html=1;" vertex="1" parent="18">
                    <mxGeometry x="1054" y="723" width="120" height="60" as="geometry"/>
                </mxCell>
                <mxCell id="83" value="" style="edgeStyle=orthogonalEdgeStyle;rounded=0;orthogonalLoop=1;jettySize=auto;html=1;" edge="1" parent="1" source="80" target="82">
                    <mxGeometry relative="1" as="geometry"/>
                </mxCell>
                <mxCell id="80" value="rw.write.Wait()" style="whiteSpace=wrap;html=1;" vertex="1" parent="1">
                    <mxGeometry x="525" y="422" width="120" height="60" as="geometry"/>
                </mxCell>
                <mxCell id="81" value="" style="edgeStyle=orthogonalEdgeStyle;rounded=0;orthogonalLoop=1;jettySize=auto;html=1;" edge="1" parent="1" source="59" target="80">
                    <mxGeometry relative="1" as="geometry"/>
                </mxCell>
                <mxCell id="85" value="&lt;span&gt;rw.readerControl.Release(1)&lt;/span&gt;" style="whiteSpace=wrap;html=1;" vertex="1" parent="1">
                    <mxGeometry x="525" y="531" width="192.5" height="68" as="geometry"/>
                </mxCell>
                <mxCell id="86" value="" style="edgeStyle=orthogonalEdgeStyle;rounded=0;orthogonalLoop=1;jettySize=auto;html=1;" edge="1" parent="1" source="60" target="85">
                    <mxGeometry relative="1" as="geometry"/>
                </mxCell>
                <mxCell id="94" value="" style="edgeStyle=orthogonalEdgeStyle;rounded=0;orthogonalLoop=1;jettySize=auto;html=1;" edge="1" parent="1" source="91" target="93">
                    <mxGeometry relative="1" as="geometry"/>
                </mxCell>
                <mxCell id="91" value="rw.write.Add(1)" style="whiteSpace=wrap;html=1;" vertex="1" parent="1">
                    <mxGeometry x="525" y="662" width="120" height="60" as="geometry"/>
                </mxCell>
                <mxCell id="92" value="" style="edgeStyle=orthogonalEdgeStyle;rounded=0;orthogonalLoop=1;jettySize=auto;html=1;" edge="1" parent="1" source="76" target="91">
                    <mxGeometry relative="1" as="geometry"/>
                </mxCell>
                <mxCell id="98" value="" style="edgeStyle=orthogonalEdgeStyle;rounded=0;orthogonalLoop=1;jettySize=auto;html=1;" edge="1" parent="1" source="95" target="97">
                    <mxGeometry relative="1" as="geometry"/>
                </mxCell>
                <mxCell id="95" value="&lt;span&gt;rw.readerControl.Release(rw.maxReads)&lt;/span&gt;" style="whiteSpace=wrap;html=1;" vertex="1" parent="1">
                    <mxGeometry x="527.5" y="779" width="232.5" height="52" as="geometry"/>
                </mxCell>
                <mxCell id="96" value="" style="edgeStyle=orthogonalEdgeStyle;rounded=0;orthogonalLoop=1;jettySize=auto;html=1;" edge="1" parent="1" source="77" target="95">
                    <mxGeometry relative="1" as="geometry"/>
                </mxCell>
            </root>
        </mxGraphModel>
    </diagram>
</mxfile>